<svg width="487" height="416" viewBox="0 0 487 416" fill="none" xmlns="http://www.w3.org/2000/svg">
<g filter="url(#filter0_di_2586_16416)">
<g clip-path="url(#clip0_2586_16416)">
<rect x="16" y="12" width="455" height="384.075" rx="11.9912" fill="white"/>
<g opacity="0.68" filter="url(#filter1_f_2586_16416)">
<path d="M180.615 76.8661C182.201 74.1205 185.13 72.4291 188.3 72.4291L300.656 72.4291C303.827 72.4291 306.756 74.1205 308.341 76.8661L364.519 174.169C366.105 176.915 366.105 180.298 364.519 183.043L308.341 280.346C306.756 283.092 303.827 284.783 300.656 284.783L188.3 284.783C185.13 284.783 182.201 283.092 180.615 280.346L124.437 183.043C122.852 180.298 122.852 176.915 124.437 174.169L180.615 76.8661Z" fill="url(#paint0_linear_2586_16416)"/>
</g>
<g opacity="0.68" filter="url(#filter2_f_2586_16416)">
<path d="M180.615 77.6082C182.201 74.8627 185.13 73.1713 188.3 73.1713L300.656 73.1713C303.827 73.1713 306.756 74.8627 308.341 77.6082L364.519 174.911C366.105 177.657 366.105 181.04 364.519 183.785L308.341 281.088C306.756 283.834 303.827 285.525 300.656 285.525L188.3 285.525C185.13 285.525 182.201 283.834 180.615 281.088L124.437 183.785C122.852 181.04 122.852 177.657 124.437 174.911L180.615 77.6082Z" fill="#D5F3FF"/>
</g>
<path opacity="0.02" d="M177.84 81.6727C181.143 75.9528 187.246 72.4291 193.851 72.4291L295.106 72.4291C301.711 72.4291 307.814 75.9528 311.117 81.6727L361.744 169.363C365.047 175.083 365.047 182.13 361.744 187.85L311.117 275.54C307.814 281.26 301.711 284.783 295.106 284.783L193.851 284.783C187.246 284.783 181.143 281.26 177.84 275.54L127.213 187.85C123.91 182.13 123.91 175.083 127.213 169.363L177.84 81.6727Z" fill="black"/>
<g filter="url(#filter3_d_2586_16416)">
<path d="M200.273 118.774C203.18 113.74 208.55 110.639 214.363 110.639L273.322 110.639C279.134 110.639 284.505 113.74 287.411 118.774L316.891 169.834C319.797 174.868 319.797 181.069 316.891 186.103L287.411 237.163C284.505 242.197 279.134 245.298 273.322 245.298L214.363 245.298C208.55 245.298 203.18 242.197 200.273 237.163L170.794 186.103C167.888 181.069 167.888 174.868 170.794 169.834L200.273 118.774Z" fill="url(#paint1_linear_2586_16416)"/>
</g>
<rect x="198.273" y="126" width="87.2598" height="67.2935" rx="13.3108" fill="url(#paint2_linear_2586_16416)"/>
<path d="M203 138.395C203 134.311 206.311 131 210.395 131H273.605C277.689 131 281 134.311 281 138.395V174.605C281 178.689 277.689 182 273.605 182H210.395C206.311 182 203 178.689 203 174.605V138.395Z" fill="#30B7F2"/>
<g filter="url(#filter4_i_2586_16416)">
<rect x="198.273" y="172.309" width="87.2598" height="39.3653" rx="13.3108" fill="#36ABDD"/>
</g>
<rect x="208.773" y="184.773" width="30.8362" height="2.62435" rx="1.31218" fill="#2A91BD"/>
<rect x="208.774" y="193.305" width="54.4553" height="2.62435" rx="1.31218" fill="#2392C2"/>
<path d="M258 133C258 136.314 255.314 139 252 139H232C228.686 139 226 136.314 226 133V131H258V133Z" fill="#D0F1FE"/>
<path d="M324.297 41.4075L407.229 185.05L324.297 328.695L158.431 328.694L75.4992 185.051L158.431 41.4067L324.297 41.4075Z" stroke="url(#paint3_linear_2586_16416)"/>
<path d="M340.113 16.1839L438.269 186.195L340.113 356.207L143.8 356.207L45.6437 186.196L143.8 16.1831L340.113 16.1839Z" stroke="url(#paint4_linear_2586_16416)"/>
<path d="M357.224 -15.7986L473.362 185.359L357.224 386.518L124.946 386.517L8.8077 185.36L124.946 -15.7994L357.224 -15.7986Z" stroke="url(#paint5_linear_2586_16416)"/>
<path d="M374.315 -44.4362L507.09 185.538L374.314 415.514L108.763 415.513L-24.0132 185.538L108.762 -44.4366L374.315 -44.4362Z" stroke="url(#paint6_linear_2586_16416)"/>
</g>
</g>
<defs>
<filter id="filter0_di_2586_16416" x="0.1" y="0.1" width="486.8" height="415.875" filterUnits="userSpaceOnUse" color-interpolation-filters="sRGB">
<feFlood flood-opacity="0" result="BackgroundImageFix"/>
<feColorMatrix in="SourceAlpha" type="matrix" values="0 0 0 0 0 0 0 0 0 0 0 0 0 0 0 0 0 0 127 0" result="hardAlpha"/>
<feOffset dy="4"/>
<feGaussianBlur stdDeviation="7.95"/>
<feComposite in2="hardAlpha" operator="out"/>
<feColorMatrix type="matrix" values="0 0 0 0 0.355769 0 0 0 0 0.355769 0 0 0 0 0.355769 0 0 0 0.1 0"/>
<feBlend mode="normal" in2="BackgroundImageFix" result="effect1_dropShadow_2586_16416"/>
<feBlend mode="normal" in="SourceGraphic" in2="effect1_dropShadow_2586_16416" result="shape"/>
<feColorMatrix in="SourceAlpha" type="matrix" values="0 0 0 0 0 0 0 0 0 0 0 0 0 0 0 0 0 0 127 0" result="hardAlpha"/>
<feOffset/>
<feGaussianBlur stdDeviation="2.45"/>
<feComposite in2="hardAlpha" operator="arithmetic" k2="-1" k3="1"/>
<feColorMatrix type="matrix" values="0 0 0 0 0 0 0 0 0 0 0 0 0 0 0 0 0 0 0.17 0"/>
<feBlend mode="normal" in2="shape" result="effect2_innerShadow_2586_16416"/>
</filter>
<filter id="filter1_f_2586_16416" x="90.1934" y="39.3735" width="308.57" height="278.465" filterUnits="userSpaceOnUse" color-interpolation-filters="sRGB">
<feFlood flood-opacity="0" result="BackgroundImageFix"/>
<feBlend mode="normal" in="SourceGraphic" in2="BackgroundImageFix" result="shape"/>
<feGaussianBlur stdDeviation="16.5276" result="effect1_foregroundBlur_2586_16416"/>
</filter>
<filter id="filter2_f_2586_16416" x="90.1934" y="40.1157" width="308.57" height="278.465" filterUnits="userSpaceOnUse" color-interpolation-filters="sRGB">
<feFlood flood-opacity="0" result="BackgroundImageFix"/>
<feBlend mode="normal" in="SourceGraphic" in2="BackgroundImageFix" result="shape"/>
<feGaussianBlur stdDeviation="16.5276" result="effect1_foregroundBlur_2586_16416"/>
</filter>
<filter id="filter3_d_2586_16416" x="164.695" y="109.678" width="158.295" height="142.497" filterUnits="userSpaceOnUse" color-interpolation-filters="sRGB">
<feFlood flood-opacity="0" result="BackgroundImageFix"/>
<feColorMatrix in="SourceAlpha" type="matrix" values="0 0 0 0 0 0 0 0 0 0 0 0 0 0 0 0 0 0 127 0" result="hardAlpha"/>
<feOffset dy="2.95796"/>
<feGaussianBlur stdDeviation="1.95965"/>
<feComposite in2="hardAlpha" operator="out"/>
<feColorMatrix type="matrix" values="0 0 0 0 0 0 0 0 0 0.375736 0 0 0 0 0.533654 0 0 0 0.44 0"/>
<feBlend mode="normal" in2="BackgroundImageFix" result="effect1_dropShadow_2586_16416"/>
<feBlend mode="normal" in="SourceGraphic" in2="effect1_dropShadow_2586_16416" result="shape"/>
</filter>
<filter id="filter4_i_2586_16416" x="198.273" y="172.309" width="87.2598" height="39.3652" filterUnits="userSpaceOnUse" color-interpolation-filters="sRGB">
<feFlood flood-opacity="0" result="BackgroundImageFix"/>
<feBlend mode="normal" in="SourceGraphic" in2="BackgroundImageFix" result="shape"/>
<feColorMatrix in="SourceAlpha" type="matrix" values="0 0 0 0 0 0 0 0 0 0 0 0 0 0 0 0 0 0 127 0" result="hardAlpha"/>
<feMorphology radius="2.95796" operator="erode" in="SourceAlpha" result="effect1_innerShadow_2586_16416"/>
<feOffset/>
<feGaussianBlur stdDeviation="6.17474"/>
<feComposite in2="hardAlpha" operator="arithmetic" k2="-1" k3="1"/>
<feColorMatrix type="matrix" values="0 0 0 0 1 0 0 0 0 1 0 0 0 0 1 0 0 0 1 0"/>
<feBlend mode="normal" in2="shape" result="effect1_innerShadow_2586_16416"/>
</filter>
<linearGradient id="paint0_linear_2586_16416" x1="183.177" y1="72.4291" x2="305.78" y2="284.783" gradientUnits="userSpaceOnUse">
<stop stop-color="#D5F3FF"/>
<stop offset="1" stop-color="#71BFE0"/>
</linearGradient>
<linearGradient id="paint1_linear_2586_16416" x1="204.97" y1="110.639" x2="282.715" y2="245.298" gradientUnits="userSpaceOnUse">
<stop stop-color="#D5F3FF"/>
<stop offset="1" stop-color="#36ABDD"/>
</linearGradient>
<linearGradient id="paint2_linear_2586_16416" x1="241.903" y1="126" x2="241.903" y2="193.294" gradientUnits="userSpaceOnUse">
<stop stop-color="#D5F3FF"/>
<stop offset="1" stop-color="#36ABDD"/>
</linearGradient>
<linearGradient id="paint3_linear_2586_16416" x1="241" y1="36.6289" x2="241" y2="331.629" gradientUnits="userSpaceOnUse">
<stop stop-color="#D7F2FF"/>
<stop offset="1" stop-color="white"/>
</linearGradient>
<linearGradient id="paint4_linear_2586_16416" x1="242" y1="16.1289" x2="242" y2="361.629" gradientUnits="userSpaceOnUse">
<stop stop-color="#D7F2FF"/>
<stop offset="1" stop-color="white"/>
</linearGradient>
<linearGradient id="paint5_linear_2586_16416" x1="241" y1="14.6289" x2="241" y2="389.629" gradientUnits="userSpaceOnUse">
<stop stop-color="#DEF5FF"/>
<stop offset="1" stop-color="white"/>
</linearGradient>
<linearGradient id="paint6_linear_2586_16416" x1="242" y1="-24.8711" x2="242" y2="416.629" gradientUnits="userSpaceOnUse">
<stop stop-color="#E9F8FF"/>
<stop offset="1" stop-color="white"/>
</linearGradient>
<clipPath id="clip0_2586_16416">
<rect x="16" y="12" width="455" height="384.075" rx="11.9912" fill="white"/>
</clipPath>
</defs>
</svg>
