<svg width="40" height="40" viewBox="0 0 40 40" fill="none" xmlns="http://www.w3.org/2000/svg">
<g id="SVG" clip-path="url(#clip0_1085_1064)">
<g id="Group 1707479366">
<g id="Group 1707479362">
<g id="Vector">
<mask id="path-1-inside-1_1085_1064" fill="white">
<path d="M22 9V3C22 2.20435 21.6839 1.44129 21.1213 0.87868C20.5587 0.31607 19.7956 0 19 0H3C2.20435 0 1.44129 0.31607 0.87868 0.87868C0.31607 1.44129 0 2.20435 0 3V27C0 27.7956 0.31607 28.5587 0.87868 29.1213C1.44129 29.6839 2.20435 30 3 30H19C19.7956 30 20.5587 29.6839 21.1213 29.1213C21.6839 28.5587 22 27.7956 22 27V20"/>
</mask>
<path d="M22 9V3C22 2.20435 21.6839 1.44129 21.1213 0.87868C20.5587 0.31607 19.7956 0 19 0H3C2.20435 0 1.44129 0.31607 0.87868 0.87868C0.31607 1.44129 0 2.20435 0 3V27C0 27.7956 0.31607 28.5587 0.87868 29.1213C1.44129 29.6839 2.20435 30 3 30H19C19.7956 30 20.5587 29.6839 21.1213 29.1213C21.6839 28.5587 22 27.7956 22 27V20" fill="url(#paint0_linear_1085_1064)" fill-opacity="0.24"/>
<path d="M23 9V3H21V9H23ZM23 3C23 1.93911 22.5785 0.921706 21.8284 0.17158L20.4142 1.58578C20.7893 1.96087 21 2.46959 21 3H23ZM21.8284 0.17158C21.0783 -0.578577 20.0608 -1 19 -1V1C19.5304 1 20.0391 1.21072 20.4142 1.58578L21.8284 0.17158ZM19 -1H3V1H19V-1ZM3 -1C1.93913 -1 0.921719 -0.578573 0.171573 0.171573L1.58579 1.58579C1.96086 1.21071 2.46957 1 3 1V-1ZM0.171573 0.171573C-0.578573 0.921719 -1 1.93913 -1 3H1C1 2.46957 1.21071 1.96086 1.58579 1.58579L0.171573 0.171573ZM-1 3V27H1V3H-1ZM-1 27C-1 28.0608 -0.578577 29.0783 0.17158 29.8284L1.58578 28.4142C1.21072 28.0391 1 27.5304 1 27H-1ZM0.17158 29.8284C0.921706 30.5785 1.93911 31 3 31V29C2.46959 29 1.96087 28.7893 1.58578 28.4142L0.17158 29.8284ZM3 31H19V29H3V31ZM19 31C20.0608 31 21.0783 30.5785 21.8284 29.8284L20.4142 28.4142C20.0391 28.7893 19.5304 29 19 29V31ZM21.8284 29.8284C22.5785 29.0783 23 28.0608 23 27H21C21 27.5304 20.7893 28.0391 20.4142 28.4142L21.8284 29.8284ZM23 27V20H21V27H23Z" fill="#B0B0B0" mask="url(#path-1-inside-1_1085_1064)"/>
</g>
<path id="Vector_2" d="M22 9V3C22 2.20435 21.6839 1.44129 21.1213 0.87868C20.5587 0.31607 19.7956 0 19 0H3C2.20435 0 1.44129 0.31607 0.87868 0.87868C0.31607 1.44129 0 2.20435 0 3V27C0 27.7956 0.31607 28.5587 0.87868 29.1213C1.44129 29.6839 2.20435 30 3 30H19C19.7956 30 20.5587 29.6839 21.1213 29.1213C21.6839 28.5587 22 27.7956 22 27V20" stroke="#B0B0B0" stroke-linecap="round" stroke-linejoin="round"/>
<path id="Vector_3" d="M16 16V13H30V16H16Z" fill="white" stroke="#B0B0B0" stroke-linecap="round" stroke-linejoin="round"/>
<path id="Vector_4" opacity="0.32" d="M4 9V6H18V9H4Z" fill="white" stroke="#B0B0B0" stroke-linecap="round" stroke-linejoin="round"/>
<path id="Vector_5" d="M15 0L13 2H9L7 0" stroke="#B0B0B0" stroke-linecap="round" stroke-linejoin="round"/>
</g>
</g>
</g>
<defs>
<linearGradient id="paint0_linear_1085_1064" x1="11" y1="0" x2="11" y2="30" gradientUnits="userSpaceOnUse">
<stop stop-color="white" stop-opacity="0"/>
<stop offset="1" stop-color="white"/>
</linearGradient>
<clipPath id="clip0_1085_1064">
<rect width="40" height="40" fill="white"/>
</clipPath>
</defs>
</svg>
