<svg width="65" height="65" viewBox="0 0 65 65" fill="none" xmlns="http://www.w3.org/2000/svg">
<g id="Capa_1">
<g id="Structure">
<path id="Vector" d="M52.8125 18.4902C52.8125 21.2948 50.5389 23.5684 47.7344 23.5684H17.2656C14.4611 23.5684 12.1875 21.2948 12.1875 18.4902V13.4121C12.1875 10.6076 14.4611 8.33398 17.2656 8.33398H47.7344C50.5389 8.33398 52.8125 10.6076 52.8125 13.4121V18.4902Z" stroke="#4F4F4F" stroke-width="4.5" stroke-miterlimit="10" stroke-linecap="round" stroke-linejoin="round"/>
<path id="Vector_2" d="M7.61719 56.6289C10.4218 56.6289 12.6953 54.3554 12.6953 51.5508C12.6953 48.7462 10.4218 46.4727 7.61719 46.4727C4.81262 46.4727 2.53906 48.7462 2.53906 51.5508C2.53906 54.3554 4.81262 56.6289 7.61719 56.6289Z" stroke="#4F4F4F" stroke-width="4.5" stroke-miterlimit="10" stroke-linecap="round" stroke-linejoin="round"/>
<path id="Vector_3" d="M32.5 56.6289C35.3046 56.6289 37.5781 54.3554 37.5781 51.5508C37.5781 48.7462 35.3046 46.4727 32.5 46.4727C29.6954 46.4727 27.4219 48.7462 27.4219 51.5508C27.4219 54.3554 29.6954 56.6289 32.5 56.6289Z" stroke="#4F4F4F" stroke-width="4.5" stroke-miterlimit="10" stroke-linecap="round" stroke-linejoin="round"/>
<path id="Vector_4" d="M57.3828 56.6289C60.1874 56.6289 62.4609 54.3554 62.4609 51.5508C62.4609 48.7462 60.1874 46.4727 57.3828 46.4727C54.5782 46.4727 52.3047 48.7462 52.3047 51.5508C52.3047 54.3554 54.5782 56.6289 57.3828 56.6289Z" stroke="#4F4F4F" stroke-width="4.5" stroke-miterlimit="10" stroke-linecap="round" stroke-linejoin="round"/>
<path id="Vector_5" d="M32.5 23.7637V38.998" stroke="#4F4F4F" stroke-width="4.5" stroke-miterlimit="10" stroke-linecap="round" stroke-linejoin="round"/>
<path id="Vector_6" d="M57.3828 44.2461C57.3828 41.4416 55.1092 39.168 52.3047 39.168H12.6953C9.89079 39.168 7.61719 41.4416 7.61719 44.2461" stroke="#4F4F4F" stroke-width="4.5" stroke-miterlimit="10" stroke-linecap="round" stroke-linejoin="round"/>
</g>
</g>
</svg>
