<svg width="61" height="61" viewBox="0 0 61 61" fill="none" xmlns="http://www.w3.org/2000/svg">
<g id="Capa_1">
<g id="Group">
<g id="Group_2">
<g id="Group_3">
<g id="Group_4">
<path id="Vector" d="M30.5596 39.0996V47.0966" stroke="#4F4F4F" stroke-width="4.5" stroke-miterlimit="10" stroke-linecap="round" stroke-linejoin="round"/>
<path id="Vector_2" d="M30.5596 55.8758C32.8982 55.8758 34.7939 53.9785 34.7939 51.6381C34.7939 49.2977 32.8982 47.4004 30.5596 47.4004C28.221 47.4004 26.3252 49.2977 26.3252 51.6381C26.3252 53.9785 28.221 55.8758 30.5596 55.8758Z" stroke="#4F4F4F" stroke-width="4.5" stroke-miterlimit="10" stroke-linecap="round" stroke-linejoin="round"/>
</g>
<g id="Group_5">
<g id="Group_6">
<path id="Vector_3" d="M9.69434 55.8739C12.0329 55.8739 13.9287 53.9766 13.9287 51.6362C13.9287 49.2957 12.0329 47.3984 9.69434 47.3984C7.35576 47.3984 5.45996 49.2957 5.45996 51.6362C5.45996 53.9766 7.35576 55.8739 9.69434 55.8739Z" stroke="#4F4F4F" stroke-width="4.5" stroke-miterlimit="10" stroke-linecap="round" stroke-linejoin="round"/>
<path id="Vector_4" d="M17.2753 38.9238V46.7492L13.4991 49.4669" stroke="#4F4F4F" stroke-width="4.5" stroke-miterlimit="10" stroke-linecap="round" stroke-linejoin="round"/>
</g>
<g id="Group_7">
<path id="Vector_5" d="M51.4248 55.8739C53.7634 55.8739 55.6592 53.9766 55.6592 51.6362C55.6592 49.2957 53.7634 47.3984 51.4248 47.3984C49.0862 47.3984 47.1904 49.2957 47.1904 51.6362C47.1904 53.9766 49.0862 55.8739 51.4248 55.8739Z" stroke="#4F4F4F" stroke-width="4.5" stroke-miterlimit="10" stroke-linecap="round" stroke-linejoin="round"/>
<path id="Vector_6" d="M43.8438 38.9238V46.7492L47.6199 49.4669" stroke="#4F4F4F" stroke-width="4.5" stroke-miterlimit="10" stroke-linecap="round" stroke-linejoin="round"/>
</g>
</g>
</g>
<path id="Vector_7" d="M33.459 22.2684C34.6082 18.3369 37.5957 15.1902 41.4277 13.8223" stroke="#4F4F4F" stroke-width="4.5" stroke-miterlimit="10" stroke-linecap="round" stroke-linejoin="round"/>
</g>
<path id="Vector_8" d="M57.9129 30.0545C58.3688 28.7411 58.6172 27.3307 58.6172 25.8621C58.6172 18.8044 52.7777 13.083 45.7219 13.083C44.2155 13.083 42.7704 13.3445 41.4284 13.8234C38.5798 8.63793 33.0682 5.12305 26.7352 5.12305C17.9815 5.12305 10.5582 11.8381 9.80754 20.399C5.57602 21.229 2.38281 24.9573 2.38281 29.4332C2.38281 34.5186 6.50424 38.6412 11.5885 38.6412H45.722C46.8715 38.6412 47.9851 38.4885 49.0447 38.2038" stroke="#4F4F4F" stroke-width="4.5" stroke-miterlimit="10" stroke-linecap="round" stroke-linejoin="round"/>
</g>
</g>
</svg>
