<svg width="64" height="65" viewBox="0 0 64 65" fill="none" xmlns="http://www.w3.org/2000/svg">
<g id="Frame">
<g id="_x30_9">
<path id="Vector" d="M23.8081 56.9453C22.6598 55.6951 21.63 54.3574 20.7213 52.9453H15.6315C14.8032 50.6223 12.6039 48.9453 10 48.9453C6.69141 48.9453 4 51.6367 4 54.9453C4 58.2539 6.69141 60.9453 10 60.9453C12.6039 60.9453 14.8032 59.2683 15.6315 56.9453H23.8081ZM10 56.9453C8.89648 56.9453 8 56.0479 8 54.9453C8 53.8428 8.89648 52.9453 10 52.9453C11.1035 52.9453 12 53.8428 12 54.9453C12 56.0479 11.1035 56.9453 10 56.9453Z" fill="#4F4F4F"/>
<path id="Vector_2" d="M54.0005 48.9453C51.3966 48.9453 49.1973 50.6223 48.369 52.9453H43.2792C42.3705 54.3574 41.3407 55.6951 40.1924 56.9453H48.3691C49.1974 59.2683 51.3966 60.9453 54.0005 60.9453C57.3091 60.9453 60.0005 58.2539 60.0005 54.9453C60.0005 51.6367 57.3091 48.9453 54.0005 48.9453ZM54.0005 56.9453C52.897 56.9453 52.0005 56.0479 52.0005 54.9453C52.0005 53.8428 52.897 52.9453 54.0005 52.9453C55.104 52.9453 56.0005 53.8428 56.0005 54.9453C56.0005 56.0479 55.104 56.9453 54.0005 56.9453Z" fill="#4F4F4F"/>
<path id="Vector_3" d="M47.4946 17.0277C45.7402 10.0966 39.4686 4.94531 32 4.94531C24.5314 4.94531 18.2598 10.0966 16.5054 17.0277C9.48694 17.7766 4 23.7308 4 30.9453C4 38.3705 9.81555 44.447 17.1276 44.9011C16.7513 43.5499 16.453 42.1753 16.2712 40.7705C11.5822 39.9462 8 35.8669 8 30.9453C8 26.1028 11.4623 22.0576 16.04 21.1434C16.1439 22.1501 16.9648 22.9453 18 22.9453C19.1055 22.9453 20 22.0498 20 20.9453C20 14.3281 25.3828 8.94531 32 8.94531C38.6172 8.94531 44 14.3281 44 20.9453C44 22.0498 44.8945 22.9453 46 22.9453C47.0352 22.9453 47.8562 22.1501 47.9601 21.1434C52.5378 22.0576 56 26.1028 56 30.9453C56 35.8669 52.418 39.9462 47.7289 40.7705C47.5471 42.1753 47.2488 43.5499 46.8726 44.9011C54.1844 44.447 60 38.3705 60 30.9453C60 23.7308 54.5131 17.7766 47.4946 17.0277Z" fill="#4F4F4F"/>
<path id="Vector_4" d="M32 60.9453C31.5449 60.9453 31.0898 60.791 30.7207 60.4814L27.9395 58.1641C21.623 52.9014 18 45.167 18 36.9453C18 36.415 18.2109 35.9062 18.5859 35.5312L22.5859 31.5312C22.9609 31.1563 23.4688 30.9453 24 30.9453H40C40.5312 30.9453 41.0391 31.1562 41.4141 31.5312L45.4141 35.5312C45.7891 35.9062 46 36.415 46 36.9453C46 45.167 42.377 52.9014 36.0625 58.1641L33.2793 60.4814C32.9102 60.791 32.4551 60.9453 32 60.9453ZM22.0137 37.7598C22.2441 44.4854 25.3066 50.7646 30.5 55.0918L32 56.3418L33.502 55.0918C38.6934 50.7646 41.7559 44.4854 41.9863 37.7598L39.1719 34.9453H24.8281L22.0137 37.7598Z" fill="#4F4F4F"/>
<path id="Vector_5" d="M32 48.9453C31.4707 48.9453 30.9629 48.7363 30.5859 48.3593L26.5859 44.3593C25.8047 43.5781 25.8047 42.3125 26.5859 41.5312C27.3672 40.75 28.6328 40.75 29.4141 41.5312L31.7832 43.9004L36.4004 37.7451C37.0645 36.8633 38.3164 36.6816 39.1992 37.3457C40.084 38.0078 40.2637 39.2617 39.5996 40.1455L33.5996 48.1455C33.252 48.6093 32.7207 48.8994 32.1426 48.9404C32.0938 48.9433 32.0469 48.9453 32 48.9453Z" fill="#4F4F4F"/>
</g>
</g>
</svg>
