<svg width="60" height="60" viewBox="0 0 60 60" fill="none" xmlns="http://www.w3.org/2000/svg">
<g id="Frame">
<path id="Vector" d="M33.216 58.4646C32.6964 58.4568 32.1793 58.3926 31.6736 58.2732C31.6287 58.2634 31.5844 58.251 31.5409 58.2361C28.9352 57.3444 21.6142 55.0522 19.0637 55.0895C17.2042 55.1254 11.86 57.0377 9.95778 57.7717C9.8136 57.8274 9.65987 57.854 9.50537 57.8502C9.35088 57.8465 9.19864 57.8123 9.05736 57.7496C8.91608 57.687 8.78851 57.5972 8.68195 57.4853C8.57538 57.3733 8.49191 57.2415 8.43629 57.0973C8.38066 56.9532 8.35399 56.7994 8.35778 56.6449C8.36156 56.4904 8.39575 56.3382 8.45837 56.1969C8.58484 55.9116 8.81949 55.6882 9.11068 55.5759C9.85032 55.2904 16.412 52.7868 19.0185 52.7366C19.0556 52.7356 19.0935 52.7354 19.1318 52.7354C22.5676 52.7354 30.9774 55.5575 32.2362 55.9867C33.006 56.2037 33.828 56.1378 34.5534 55.8011C35.4206 55.2714 45.2579 49.2475 48.3626 46.6662C48.5018 46.5504 48.6418 46.4402 48.7785 46.3329C49.4622 45.7959 49.5347 45.6778 49.5176 45.5431L49.456 45.3398C49.4163 45.2794 49.3002 45.2007 48.8275 45.2634L37.194 50.4178C36.9087 50.5436 36.5852 50.5511 36.2944 50.4386C36.0036 50.3261 35.7694 50.1028 35.6431 49.8177C35.5168 49.5326 35.5088 49.2091 35.6209 48.9181C35.7329 48.6272 35.9558 48.3926 36.2407 48.2658L48.0191 43.0473C48.11 43.0071 48.2056 42.9786 48.3036 42.9624C50.5057 42.598 51.3399 43.7434 51.6415 44.4589C51.6575 44.4967 51.6715 44.5353 51.6834 44.5747L51.7893 44.9244C51.7995 44.9583 51.8082 44.9924 51.8154 45.0269C52.1565 46.6728 50.9984 47.5822 50.2321 48.184C50.1122 48.2783 49.9893 48.3744 49.8673 48.476C46.5023 51.2739 36.1556 57.5812 35.7168 57.8485C35.6783 57.8718 35.6385 57.893 35.5977 57.9119C34.8544 58.2701 34.041 58.4588 33.216 58.4646Z" fill="#4F4F4F"/>
<path id="Vector_2" d="M34.2425 52.7064C34.229 52.7064 34.2155 52.7064 34.2019 52.7061C31.0481 52.6807 26.4294 51.5494 26.2344 51.5013C25.9314 51.4265 25.6705 51.2344 25.5091 50.9673C25.3477 50.7001 25.299 50.3798 25.3738 50.0768C25.4486 49.7738 25.6407 49.5128 25.9078 49.3514C26.1749 49.19 26.4953 49.1414 26.7983 49.2161C26.8434 49.2274 31.3452 50.3294 34.2208 50.3529H34.2432C35.04 50.3529 35.4817 50.0143 35.4947 49.7667C35.4956 49.7486 35.497 49.7308 35.4988 49.7128L35.5438 49.2559C35.5594 48.902 35.5045 48.6189 34.8174 48.4592C34.3449 48.3662 33.8673 48.3011 33.3871 48.2642C31.9732 48.1212 30.2134 47.9433 28.3224 46.9735C27.4847 46.5073 26.6846 45.9763 25.9295 45.3856C24.9699 44.6767 23.9777 43.9436 23.1294 43.6458C19.7144 42.446 15.8413 44.0161 14.0711 45.364C11.9745 46.9607 10.5207 47.0415 10.2505 47.0415V44.6879L10.2158 44.6886C10.2252 44.6879 11.1646 44.6188 12.6452 43.4916C14.5174 42.0656 19.2814 39.7992 23.9093 41.425C25.0914 41.8402 26.2284 42.6799 27.3279 43.4922C27.9816 44.0056 28.673 44.4691 29.3962 44.879C30.8921 45.646 32.3434 45.7929 33.624 45.9222C34.2038 45.9677 34.7803 46.0493 35.35 46.1664C37.0281 46.5564 37.9787 47.7665 37.893 49.4037C37.8921 49.4218 37.8906 49.4397 37.8889 49.4575L37.8433 49.9199C37.7406 51.5411 36.2347 52.7064 34.2425 52.7064Z" fill="#4F4F4F"/>
<path id="Vector_3" d="M10.519 46.3308C10.3494 46.331 10.1819 46.2945 10.0278 46.2239C9.87369 46.1532 9.73673 46.05 9.62632 45.9213C6.31541 42.0695 4.16418 37.358 3.42209 32.3333C2.68001 27.3086 3.37748 22.1764 5.43362 17.5319C7.48976 12.8875 10.8203 8.92099 15.0391 6.09247C19.2579 3.26394 24.1921 1.68924 29.2694 1.55097C34.3468 1.41271 39.3593 2.71654 43.7258 5.31128C48.0923 7.90601 51.6338 11.6853 53.9396 16.211C56.2455 20.7367 57.2213 25.8233 56.7537 30.881C56.2862 35.9387 54.3946 40.7602 51.2982 44.7865C51.1078 45.0338 50.8269 45.1953 50.5174 45.2355C50.2079 45.2757 49.8951 45.1913 49.6478 45.0009C49.4006 44.8104 49.2391 44.5296 49.1989 44.2201C49.1587 43.9106 49.2431 43.5978 49.4335 43.3505C52.7441 39.0739 54.5322 33.8144 54.5142 28.4061C54.5141 24.4529 53.5579 20.5584 51.7273 17.0546C49.8966 13.5509 47.2457 10.5418 44.0007 8.28407C40.7556 6.02632 37.0127 4.58685 33.0911 4.08842C29.1694 3.58999 25.1854 4.04738 21.4787 5.42159C17.7721 6.7958 14.4528 9.04606 11.8038 11.9805C9.15485 14.9149 7.25487 18.4464 6.26587 22.2739C5.27687 26.1014 5.22819 30.1113 6.12399 33.9616C7.01979 37.812 8.8335 41.3886 11.4104 44.3865C11.5573 44.5572 11.652 44.7664 11.6835 44.9894C11.715 45.2124 11.6818 45.4397 11.5879 45.6444C11.4941 45.8491 11.3435 46.0225 11.154 46.1442C10.9645 46.2659 10.7441 46.3306 10.519 46.3308Z" fill="#4F4F4F"/>
<path id="Vector_4" d="M40.3017 48.4737C40.1022 48.4734 39.906 48.4224 39.7315 48.3255C39.5571 48.2285 39.4101 48.0888 39.3045 47.9195C39.1989 47.7502 39.138 47.5568 39.1277 47.3575C39.1173 47.1582 39.1577 46.9595 39.2452 46.7802L40.8141 43.5676C42.7739 39.1987 43.8094 33.9559 43.8094 28.4046C43.8094 21.7476 42.3075 15.5067 39.5802 10.8316C36.9693 6.35551 33.5667 3.89047 29.9995 3.89047C26.4324 3.89047 23.0297 6.35551 20.4188 10.8316C17.6915 15.5067 16.1896 21.7476 16.1896 28.4046C16.1896 33.11 16.9547 37.6867 18.4024 41.64C18.5098 41.933 18.4963 42.2568 18.3649 42.5399C18.2335 42.823 17.9951 43.0424 17.702 43.1497C17.4089 43.257 17.0852 43.2435 16.8021 43.1122C16.519 42.9808 16.2996 42.7424 16.1923 42.4493C14.6508 38.2395 13.8359 33.383 13.8359 28.4046C13.8359 21.3372 15.4517 14.6752 18.3858 9.64548C21.436 4.41669 25.5606 1.53711 29.9995 1.53711C34.4385 1.53711 38.563 4.41666 41.6132 9.64548C44.5473 14.6752 46.1631 21.3372 46.1631 28.4046C46.1631 34.2931 45.0531 39.876 42.9534 44.5493C42.9482 44.5607 42.9428 44.5722 42.9373 44.5834L41.3601 47.8129C41.2633 48.0111 41.1127 48.1782 40.9256 48.295C40.7385 48.4118 40.5223 48.4737 40.3017 48.4737Z" fill="#4F4F4F"/>
<path id="Vector_5" d="M30 47.6214C29.8455 47.6215 29.6925 47.5911 29.5497 47.5319C29.4069 47.4728 29.2772 47.3861 29.1679 47.2769C29.0586 47.1676 28.9719 47.0379 28.9128 46.8951C28.8537 46.7523 28.8232 46.5993 28.8232 46.4448V2.71391C28.8232 2.4018 28.9472 2.10248 29.1679 1.88179C29.3886 1.66109 29.6879 1.53711 30 1.53711C30.3121 1.53711 30.6115 1.66109 30.8322 1.88179C31.0529 2.10248 31.1768 2.4018 31.1768 2.71391V46.4448C31.1769 46.5993 31.1464 46.7523 31.0873 46.8951C31.0282 47.0379 30.9415 47.1676 30.8322 47.2769C30.7229 47.3861 30.5932 47.4728 30.4504 47.5319C30.3076 47.5911 30.1546 47.6215 30 47.6214Z" fill="#4F4F4F"/>
<path id="Vector_6" d="M52.7031 17.5506H7.29777C6.9857 17.5506 6.68641 17.4267 6.46574 17.206C6.24507 16.9853 6.12109 16.686 6.12109 16.3739C6.12109 16.0619 6.24507 15.7626 6.46574 15.5419C6.68641 15.3212 6.9857 15.1973 7.29777 15.1973H52.7031C53.0152 15.1973 53.3145 15.3212 53.5352 15.5419C53.7558 15.7626 53.8798 16.0619 53.8798 16.3739C53.8798 16.686 53.7558 16.9853 53.5352 17.206C53.3145 17.4267 53.0152 17.5506 52.7031 17.5506Z" fill="#4F4F4F"/>
<path id="Vector_7" d="M55.6066 31.6385H4.3925C4.08043 31.6385 3.78113 31.5145 3.56046 31.2939C3.33979 31.0732 3.21582 30.7739 3.21582 30.4618C3.21582 30.1498 3.33979 29.8505 3.56046 29.6298C3.78113 29.4091 4.08043 29.2852 4.3925 29.2852H55.6066C55.9187 29.2852 56.218 29.4091 56.4387 29.6298C56.6593 29.8505 56.7833 30.1498 56.7833 30.4618C56.7833 30.7739 56.6593 31.0732 56.4387 31.2939C56.218 31.5145 55.9187 31.6385 55.6066 31.6385Z" fill="#4F4F4F"/>
</g>
</svg>
