<svg width="67" height="66" viewBox="0 0 67 66" fill="none" xmlns="http://www.w3.org/2000/svg">
<g id="Layer_2">
<path id="Vector" d="M28.9912 16.0918C25.5778 16.0918 22.8037 18.8659 22.8037 22.2793V36.7168H26.9287V27.3685H31.0537V36.7168H35.1787V22.2793C35.1787 18.8659 32.4046 16.0918 28.9912 16.0918ZM26.9287 23.2435V22.2793C26.9287 21.1398 27.8517 20.2168 28.9912 20.2168C30.1307 20.2168 31.0537 21.1398 31.0537 22.2793V23.2435H26.9287Z" fill="#4F4F4F"/>
<path id="Vector_2" d="M37.2412 20.2168H38.2725V32.5918H37.2412V36.7168H43.4287V32.5918H42.3975V20.2168H43.4287V16.0918H37.2412V20.2168Z" fill="#4F4F4F"/>
<path id="Vector_3" d="M53.7413 26.4057C53.7413 20.708 51.354 15.2115 47.1826 11.3236C42.9544 7.37911 37.4372 5.42489 31.6468 5.83223C21.4993 6.53864 13.2854 14.7165 12.5429 24.864C11.9911 32.3972 15.5799 39.6263 21.9118 43.7255C23.7577 44.9218 24.8663 46.8966 24.8663 49.0004V55.2858C24.8663 58.6993 27.6404 61.4733 31.0538 61.4733H35.1788C38.5922 61.4733 41.3663 58.6993 41.3663 55.2858V49.0004C41.3663 46.9018 42.4233 44.9269 44.1301 43.8493C50.1474 40.044 53.7413 33.5213 53.7413 26.4108V26.4057ZM35.1788 57.3432H31.0538C29.9143 57.3432 28.9913 56.4202 28.9913 55.2807V53.2182H37.2413V55.2807C37.2413 56.4202 36.3183 57.3432 35.1788 57.3432ZM41.9232 40.3585C38.9893 42.2147 37.2413 45.4425 37.2413 48.9952V49.0932H28.9913V48.9952C28.9913 45.4838 27.1866 42.2199 24.1547 40.2605C19.0913 36.9811 16.2193 31.1958 16.6576 25.163C17.2505 17.0522 23.8144 10.509 31.9304 9.94692C32.3274 9.92114 32.7244 9.90567 33.1215 9.90567C37.3186 9.90567 41.2735 11.4577 44.3621 14.34C47.7446 17.4957 49.606 21.7805 49.606 26.4057C49.606 32.093 46.7288 37.3111 41.9129 40.3585H41.9232Z" fill="#4F4F4F"/>
<path id="Vector_4" d="M4.24121 24.3418H10.4287V28.4668H4.24121V24.3418Z" fill="#4F4F4F"/>
<path id="Vector_5" d="M55.8037 24.3418H61.9912V28.4668H55.8037V24.3418Z" fill="#4F4F4F"/>
<path id="Vector_6" d="M11.2354 45.3652L15.6099 40.9907L18.5263 43.907L14.1517 48.2816L11.2354 45.3652Z" fill="#4F4F4F"/>
<path id="Vector_7" d="M47.6943 8.91406L52.0689 4.5395L54.9853 7.45588L50.6107 11.8304L47.6943 8.91406Z" fill="#4F4F4F"/>
<path id="Vector_8" d="M47.6943 43.9082L50.6107 40.9918L54.9853 45.3664L52.0689 48.2828L47.6943 43.9082Z" fill="#4F4F4F"/>
<path id="Vector_9" d="M11.2422 7.44727L14.1586 4.53089L18.5331 8.90545L15.6168 11.8218L11.2422 7.44727Z" fill="#4F4F4F"/>
</g>
</svg>
