<svg width="67" height="67" viewBox="0 0 67 67" fill="none" xmlns="http://www.w3.org/2000/svg">
<g id="Layer_1">
<g id="Group">
<path id="Vector" d="M62.8125 46.0625H41.875C40.7192 46.0625 39.7812 46.9984 39.7812 48.1562C39.7812 49.3141 40.7192 50.25 41.875 50.25H60.7188C60.7188 52.5594 58.8407 54.4375 56.5312 54.4375H10.4688C8.15934 54.4375 6.28125 52.5594 6.28125 50.25H25.125C26.2808 50.25 27.2188 49.3141 27.2188 48.1562C27.2188 46.9984 26.2808 46.0625 25.125 46.0625H4.1875C3.03175 46.0625 2.09375 46.9984 2.09375 48.1562V50.25C2.09375 54.8688 5.84994 58.625 10.4688 58.625H56.5312C61.1501 58.625 64.9062 54.8688 64.9062 50.25V48.1562C64.9062 46.9984 63.9683 46.0625 62.8125 46.0625Z" fill="#4F4F4F"/>
<path id="Vector_2" d="M50.25 16.75H56.5312C57.6849 16.75 58.625 17.688 58.625 18.8438V41.875C58.625 43.0328 59.563 43.9688 60.7188 43.9688C61.8745 43.9688 62.8125 43.0328 62.8125 41.875V18.8438C62.8125 15.3807 59.9943 12.5625 56.5312 12.5625H50.25C49.0943 12.5625 48.1562 13.4984 48.1562 14.6562C48.1562 15.8141 49.0943 16.75 50.25 16.75Z" fill="#4F4F4F"/>
<path id="Vector_3" d="M6.28125 43.9688C7.437 43.9688 8.375 43.0328 8.375 41.875V18.8438C8.375 17.688 9.31509 16.75 10.4688 16.75H16.75C17.9058 16.75 18.8438 15.8141 18.8438 14.6562C18.8438 13.4984 17.9058 12.5625 16.75 12.5625H10.4688C7.00569 12.5625 4.1875 15.3807 4.1875 18.8438V41.875C4.1875 43.0328 5.1255 43.9688 6.28125 43.9688Z" fill="#4F4F4F"/>
<path id="Vector_4" d="M31.0063 38.812C31.5465 39.0653 32.07 39.3124 32.5641 39.5594C32.8572 39.7081 33.1797 39.7814 33.5 39.7814C33.8203 39.7814 34.1428 39.7081 34.4359 39.5615C34.93 39.3145 35.4535 39.0674 35.9937 38.8141C40.244 36.8083 46.0625 34.0675 46.0625 27.2189C46.0625 26.061 45.1245 25.1251 43.9688 25.1251C42.813 25.1251 41.875 26.061 41.875 27.2189C41.875 31.1091 38.6967 32.9097 34.2077 35.0244C33.969 35.1395 33.7324 35.2484 33.5 35.3594C33.2676 35.2484 33.031 35.1395 32.7923 35.0244C28.3033 32.9097 25.125 31.1091 25.125 27.2189V13.9801L33.5 10.6301L43.1899 14.5077C44.2661 14.937 45.4825 14.4156 45.9117 13.3394C46.341 12.2653 45.8196 11.0468 44.7455 10.6175L34.2768 6.43005C33.7764 6.22905 33.2215 6.22905 32.7211 6.43005L22.2524 10.6175C21.4588 10.9379 20.9375 11.7063 20.9375 12.5626V27.2189C20.9375 34.0675 26.756 36.8083 31.0063 38.812Z" fill="#4F4F4F"/>
<path id="Vector_5" d="M42.6602 17.2078L33.655 24.4124L30.7928 21.5502C29.9742 20.7316 28.6509 20.7316 27.8323 21.5502C27.0136 22.3689 27.0136 23.6921 27.8323 24.5108L32.0198 28.6983C32.4259 29.1045 32.9619 29.3117 33.5 29.3117C33.9607 29.3117 34.4234 29.161 34.8065 28.8532L45.2753 20.4782C46.1798 19.7538 46.3243 18.4368 45.6019 17.5344C44.8796 16.632 43.5626 16.4833 42.6602 17.2078Z" fill="#4F4F4F"/>
</g>
</g>
</svg>
