<svg width="63" height="64" viewBox="0 0 63 64" fill="none" xmlns="http://www.w3.org/2000/svg">
<g id="svg5">
<g id="layer1">
<path id="path3388" fill-rule="evenodd" clip-rule="evenodd" d="M32.4148 31.3926C31.8926 31.3927 31.3919 31.6001 31.0228 31.9694C30.6537 32.3386 30.4463 32.8393 30.4463 33.3613C30.4463 33.8834 30.6537 34.3841 31.0228 34.7533L36.5907 40.3212L31.0228 45.889C30.6537 46.2582 30.4463 46.7589 30.4463 47.281C30.4463 47.8031 30.6537 48.3038 31.0228 48.673C31.392 49.0421 31.8927 49.2495 32.4148 49.2495C32.9368 49.2495 33.4375 49.0421 33.8067 48.673L39.3746 43.1051L44.9424 48.673C45.3116 49.0421 45.8124 49.2495 46.3344 49.2495C46.8565 49.2495 47.3572 49.0421 47.7264 48.673C48.0955 48.3038 48.3029 47.8031 48.3029 47.281C48.3029 46.7589 48.0955 46.2582 47.7264 45.889L42.1585 40.3212L47.7264 34.7533C48.0955 34.3841 48.3029 33.8834 48.3029 33.3613C48.3029 32.8393 48.0955 32.3386 47.7264 31.9694C47.3572 31.6001 46.8565 31.3927 46.3344 31.3926C45.8123 31.3927 45.3116 31.6001 44.9424 31.9694L39.3746 37.5372L33.8067 31.9694C33.4376 31.6001 32.9369 31.3927 32.4148 31.3926Z" fill="#4F4F4F"/>
<path id="path42340" fill-rule="evenodd" clip-rule="evenodd" d="M9.84375 4.88281C6.60575 4.88281 3.9375 7.55106 3.9375 10.7891V38.3516C3.9375 41.5896 6.60575 44.2578 9.84375 44.2578H11.8125V46.2266C11.8125 49.4646 14.4807 52.1328 17.7188 52.1328H19.6875V54.1016C19.6875 57.3396 22.3557 60.0078 25.5938 60.0078H53.1562C56.3943 60.0078 59.0625 57.3396 59.0625 54.1016V26.5391C59.0625 23.3011 56.3943 20.6328 53.1562 20.6328H51.1875V18.6641C51.1875 15.4261 48.5193 12.7578 45.2812 12.7578H43.3125V10.7891C43.3125 7.55106 40.6443 4.88281 37.4062 4.88281H9.84375ZM9.84375 8.82031H37.4062C38.531 8.82031 39.375 9.66433 39.375 10.7891V12.7578H17.7188C14.4807 12.7578 11.8125 15.4261 11.8125 18.6641V40.3203H9.84375C8.71902 40.3203 7.875 39.4763 7.875 38.3516V10.7891C7.875 9.66433 8.71902 8.82031 9.84375 8.82031ZM17.7188 16.6953H45.2812C46.406 16.6953 47.25 17.5393 47.25 18.6641V20.6328H25.5938C22.3557 20.6328 19.6875 23.3011 19.6875 26.5391V48.1953H17.7188C16.594 48.1953 15.75 47.3513 15.75 46.2266V18.6641C15.75 17.5393 16.594 16.6953 17.7188 16.6953ZM25.5938 24.5703H53.1562C54.281 24.5703 55.125 25.4143 55.125 26.5391V54.1016C55.125 55.2263 54.281 56.0703 53.1562 56.0703H25.5938C24.469 56.0703 23.625 55.2263 23.625 54.1016C23.625 44.9141 23.625 35.7266 23.625 26.5391C23.625 25.4143 24.469 24.5703 25.5938 24.5703Z" fill="#4F4F4F"/>
</g>
</g>
</svg>
